<svg width="120" height="120" viewBox="0 0 120 120" fill="none" xmlns="http://www.w3.org/2000/svg">
<g clip-path="url(#clip0_1_6)">
<path d="M70.0062 98.8721C61.0486 104.343 52.9287 106.481 45.6466 105.287C38.3381 104.013 33.0288 99.0853 29.7187 90.5057L52.5498 76.5625C53.7436 79.432 55.2563 81.1341 57.0882 81.6688C58.92 82.2034 60.9283 81.8037 63.113 80.4694C65.0794 79.2685 66.5102 77.7625 67.4056 75.9513C68.3474 74.0145 68.502 72.0722 67.8694 70.1244C67.0523 67.6084 65.3637 66.3055 62.8036 66.2155C60.2436 66.1256 56.3199 66.6739 51.0326 67.8605C45.4014 69.0627 40.7432 69.7678 37.0581 69.9759C33.4195 70.0583 29.8946 69.1474 26.4835 67.2431C23.1188 65.2131 20.5534 61.4792 18.7873 56.0415C16.9949 50.5226 16.7041 45.0592 17.915 39.6514C19.0995 34.1623 21.547 29.069 25.2576 24.3715C28.9682 19.6739 33.5909 15.6351 39.1257 12.2549C48.0834 6.78436 55.9848 4.77937 62.8299 6.23992C69.7215 7.57484 74.7201 12.3514 77.8256 20.5697L54.5575 34.7798C53.6412 32.2271 52.2803 30.724 50.4749 30.2705C48.7423 29.7725 46.82 30.1684 44.708 31.4582C43.1058 32.4367 41.9663 33.7648 41.2894 35.4425C40.6125 37.1203 40.5904 38.9331 41.223 40.8809C41.7502 42.5041 42.7576 43.5908 44.2454 44.1411C45.7797 44.5657 47.5293 44.713 49.4942 44.5828C51.4328 44.3714 54.2516 43.9143 57.9505 43.2115C63.4361 42.0983 68.0479 41.5188 71.7856 41.473C75.5699 41.3016 79.1312 42.1903 82.4695 44.1391C85.8544 45.9623 88.3639 49.3899 89.9982 54.4218C91.6588 59.5349 91.9829 64.832 90.9704 70.3133C90.0307 75.75 87.7583 80.9795 84.1531 86.0017C80.6208 90.9794 75.9052 95.2696 70.0062 98.8721Z" fill="#227C70"/>
<path d="M77.2499 107.039C68.2922 112.51 60.1723 114.648 52.8902 113.455C45.5818 112.18 40.2725 107.253 36.9624 98.673L59.7934 84.7299C60.9872 87.5994 62.5 89.3014 64.3318 89.8361C66.1636 90.3708 68.1719 89.971 70.3567 88.6367C72.323 87.4359 73.7538 85.9299 74.6492 84.1187C75.5911 82.1819 75.7457 80.2396 75.1131 78.2917C74.2959 75.7758 72.6073 74.4728 70.0473 74.3829C67.4872 74.293 63.5635 74.8413 58.2763 76.0279C52.645 77.23 47.9868 77.9351 44.3018 78.1432C40.6631 78.2257 37.1383 77.3148 33.7271 75.4104C30.3624 73.3804 27.797 69.6466 26.031 64.2089C24.2385 58.69 23.9478 53.2266 25.1586 47.8187C26.3431 42.3297 28.7907 37.2364 32.5013 32.5388C36.2119 27.8413 40.8346 23.8024 46.3694 20.4223C55.327 14.9517 63.2284 12.9467 70.0735 14.4073C76.9652 15.7422 81.9637 20.5188 85.0692 28.7371L61.8012 42.9471C60.8849 40.3945 59.524 38.8914 57.7185 38.4379C55.9859 37.9399 54.0636 38.3358 51.9517 39.6256C50.3495 40.604 49.2099 41.9321 48.533 43.6099C47.8561 45.2876 47.834 47.1004 48.4666 49.0483C48.9938 50.6715 50.0013 51.7582 51.4891 52.3085C53.0233 52.7331 54.7729 52.8803 56.7379 52.7501C58.6765 52.5388 61.4952 52.0817 65.1942 51.3788C70.6798 50.2656 75.2915 49.6862 79.0293 49.6404C82.8136 49.469 86.3749 50.3577 89.7132 52.3065C93.098 54.1297 95.6075 57.5572 97.2418 62.5891C98.9024 67.7022 99.2265 72.9994 98.214 78.4806C97.2743 83.9174 95.0019 89.1469 91.3968 94.1691C87.8644 99.1468 83.1488 103.437 77.2499 107.039Z" fill="#1C315E"/>
<rect x="15" y="129.201" width="77" height="1.78018" rx="0.890089" transform="rotate(-32.3488 15 129.201)" fill="white"/>
<rect x="-18" y="140.201" width="77" height="1.78018" rx="0.890089" transform="rotate(-32.3488 -18 140.201)" fill="white"/>
<rect x="2" y="147.201" width="77" height="1.78018" rx="0.890089" transform="rotate(-32.3488 2 147.201)" fill="white"/>
</g>
<defs>
<clipPath id="clip0_1_6">
<rect width="120" height="120" fill="white"/>
</clipPath>
</defs>
</svg>
